<svg xmlns="http://www.w3.org/2000/svg" viewBox="0 0 16 16"><path fill="currentColor" d="M8 1.5a1 1 0 0 1 1 1v.53a1 1 0 0 0 .5.87l.47.27a1 1 0 0 0 1 0l.46-.27a1 1 0 0 1 1.36.36l.5.86a1 1 0 0 1-.36 1.36l-.46.27a1 1 0 0 0-.5.87v.54a1 1 0 0 0 .5.87l.46.27a1 1 0 0 1 .36 1.36l-.5.86a1 1 0 0 1-1.36.36l-.46-.27a1 1 0 0 0-1 0l-.47.27a1 1 0 0 0-.5.87v.53a1 1 0 0 1-2 0v-.53a1 1 0 0 0-.5-.87l-.47-.27a1 1 0 0 0-1 0l-.46.27a1 1 0 0 1-1.36-.36l-.5-.86a1 1 0 0 1 .36-1.36l.46-.27a1 1 0 0 0 .5-.87v-.54a1 1 0 0 0-.5-.87l-.46-.27a1 1 0 0 1-.36-1.36l.5-.86a1 1 0 0 1 1.36-.36l.46.27a1 1 0 0 0 1 0l.47-.27a1 1 0 0 0 .5-.87V2.5a1 1 0 0 1 1-1zM8 5.5a2.5 2.5 0 1 0 0 5 2.5 2.5 0 0 0 0-5z"/></svg>
